<svg width="185" height="176" viewBox="0 0 185 176" fill="none" xmlns="http://www.w3.org/2000/svg">
<g filter="url(#filter0_d)">
<path d="M141 49.9999C141 77.6141 118.614 99.9998 91 99.9998C63.3858 99.9998 41 77.6141 41 49.9999C41 22.3857 63.3858 0 91 0C118.614 0 141 22.3857 141 49.9999Z" fill="url(#paint0_linear)"/>
<path d="M52.9996 17.6L52.5996 17.4L55.7996 14L59.1996 11L62.5996 8.39999L67.5996 5.39999L72.3996 3.19999L77.1996 1.6L82.3996 0.399999L88.1996 0H93.5996L98.3996 0.399999L102.4 1.2L105 2L107.8 2.99999L110.8 4.19999L113.2 5.19999L116.8 7.19999L122.2 11.2L125.6 14.2L131 20.4L133.4 24.2L136.8 30.5999C135.733 38.6666 131.32 51.9199 122.2 40.3999C115.397 31.807 107.652 29.6995 102.385 29.8092C101.253 30.0491 99.8654 30.2792 98.2012 30.4981C98.1344 30.5068 98.0673 30.5156 97.9996 30.5243C97.8034 30.5497 98.4044 30.4731 98.2012 30.4981C99.8654 30.2792 101.253 30.0491 102.385 29.8092C100.59 29.8465 99.0837 30.1411 97.9996 30.5243C98.0673 30.5156 98.1344 30.5068 98.2012 30.4981C98.4044 30.4731 97.8034 30.5497 97.9996 30.5243C99.0837 30.1411 100.59 29.8465 102.385 29.8092C119.588 26.1633 77.8424 20.2639 52.9996 17.6Z" fill="url(#paint1_linear)"/>
<path d="M111.001 50.0003C111.001 60.6779 102.793 69.3337 92.6673 69.3337C82.5421 69.3337 74.334 60.6779 74.334 50.0003C74.334 39.3228 82.5421 30.667 92.6673 30.667C102.793 30.667 111.001 39.3228 111.001 50.0003Z" fill="white" fill-opacity="0.5"/>
<path d="M110.85 50C110.85 60.9628 101.963 69.8499 91 69.8499C80.0371 69.8499 71.15 60.9628 71.15 50C71.15 39.0371 80.0371 30.15 91 30.15C101.963 30.15 110.85 39.0371 110.85 50Z" fill="#3A3A3A" stroke="black" stroke-width="0.3"/>
<path d="M113.2 34.8004C122.16 39.7604 123.333 45.0005 122.8 47.0005C124.133 49.7338 128 53.3205 132.8 45.8005C135.896 40.9488 137.078 36.086 137.313 33.4787L137 31.6004C137.283 31.2929 137.441 32.0446 137.313 33.4787L138.8 42.4005C139.066 43.5338 139.6 46.0405 139.6 47.0005V56.2005L140 59.4004L139.6 61.2004L139.2 63.0004L138.4 66.0004L137.2 69.2004L135 73.8004L132.6 77.8004L130.8 80.2004L128.6 82.8004L126.8 84.8004L124.6 87.0004L122.2 89.0004L119.6 91.0004L116.8 92.8004L114 94.4004L110.6 96.0003L108 97.0003L105.6 97.8003L103.6 98.4003L101 99.0003L98.7995 99.4003L97.5996 99.5503L95.1996 99.8003L91.9996 100H88.7996L86.2004 99.7458L86.1996 99.7457L84.5996 99.6003L80.5996 98.8003L75.5996 97.4003L69.3996 94.6003C62.9329 92.667 106.427 70.6259 113.2 73.4255C118.083 71.1526 121.001 69.0577 115.6 66.8004C102.2 61.2004 119.6 63.0004 120.6 61.0004C121.6 59.0004 112.891 37.6004 106.045 33.2004C106.849 32.4796 104.376 29.9158 113.2 34.8004Z" fill="url(#paint2_linear)"/>
</g>
<path d="M13.625 159V144.812H19.8125C20.2708 144.812 20.5833 145.042 20.75 145.5C20.7917 145.583 20.8333 145.688 20.875 145.812L25.1875 159H34.4375L30.5625 148C29.7292 145.833 28.625 144.333 27.25 143.5C30.625 141.833 32.4583 139.062 32.75 135.188C32.7917 134.812 32.8125 134.458 32.8125 134.125V129.312C32.8125 124.396 30.7292 121.208 26.5625 119.75C24.9792 119.208 23.2083 118.958 21.25 119L4.375 119.312V159H13.625ZM22.5625 127.062C23.1042 127.146 23.3958 127.438 23.4375 127.938V135.938C23.3542 136.479 23.0625 136.771 22.5625 136.812H13.625V127.062H22.5625ZM47.9375 159.625C51.6042 159.542 53.6875 157.708 54.1875 154.125L54.8125 159H62.875L62.75 128.375H53.875L54 152.438H47.9375C47.3958 152.354 47.1042 152.062 47.0625 151.562V128.375H38.1875V151.812C38.1875 155.812 39.625 158.25 42.5 159.125C43.5833 159.458 44.8542 159.625 46.3125 159.625H47.9375ZM84.0625 127.75C80.3958 127.833 78.3125 129.667 77.8125 133.25L77.1875 128.375H69.125L69.25 159H78.125L78 135.812C78.0833 135.271 78.375 134.979 78.875 134.938H84.0625C84.6042 135.021 84.8958 135.312 84.9375 135.812V159H93.8125V135.562C93.8125 131.562 92.375 129.125 89.5 128.25C88.4167 127.917 87.1458 127.75 85.6875 127.75H84.0625ZM98.375 123.75H100.75C100.625 125.542 99.875 127.438 98.5 129.438L101 131.5C104 128.583 105.521 125.583 105.562 122.5V115.812H98.375V123.75ZM137.125 151.562H120.875C120.375 151.562 120.167 151.312 120.25 150.812C120.292 150.604 120.354 150.438 120.438 150.312L138.25 126.688C138.25 122.312 136.521 119.854 133.062 119.312C132.562 119.229 132.083 119.188 131.625 119.188L110.688 119.25V126.75L126.25 126.688C126.792 126.688 127.042 126.938 127 127.438C126.958 127.604 126.896 127.75 126.812 127.875L108.688 152.188C108.688 155.938 110.083 158.167 112.875 158.875C113.458 159 114.042 159.062 114.625 159.062H137.062L137.125 151.562ZM150.812 159V128.375H141.938V159H150.812ZM150.812 124.5V117H141.938V124.5H150.812ZM171.25 146.688C171.708 146.771 172.021 147.062 172.188 147.562L175.438 159H184.562L181.562 148.875C180.646 145.875 179.625 143.979 178.5 143.188C178.125 142.938 177.729 142.729 177.312 142.562C178.312 141.729 179.188 139.875 179.938 137L182.25 128.375H173.375L170.875 138.312C170.667 138.854 170.354 139.146 169.938 139.188H166.188V116.812H157.438V159H166.188V146.688H171.25Z" fill="white"/>
<defs>
<filter id="filter0_d" x="37" y="0" width="108" height="108" filterUnits="userSpaceOnUse" color-interpolation-filters="sRGB">
<feFlood flood-opacity="0" result="BackgroundImageFix"/>
<feColorMatrix in="SourceAlpha" type="matrix" values="0 0 0 0 0 0 0 0 0 0 0 0 0 0 0 0 0 0 127 0"/>
<feOffset dy="4"/>
<feGaussianBlur stdDeviation="2"/>
<feColorMatrix type="matrix" values="0 0 0 0 0 0 0 0 0 0 0 0 0 0 0 0 0 0 0.25 0"/>
<feBlend mode="normal" in2="BackgroundImageFix" result="effect1_dropShadow"/>
<feBlend mode="normal" in="SourceGraphic" in2="effect1_dropShadow" result="shape"/>
</filter>
<linearGradient id="paint0_linear" x1="91" y1="0" x2="91" y2="99.9998" gradientUnits="userSpaceOnUse">
<stop stop-color="#5271FF"/>
<stop offset="1" stop-color="#4C0BD1" stop-opacity="0.5"/>
</linearGradient>
<linearGradient id="paint1_linear" x1="130.8" y1="27" x2="56.3996" y2="2.39992" gradientUnits="userSpaceOnUse">
<stop stop-color="#00C4CC"/>
<stop offset="1" stop-color="#5271FF"/>
</linearGradient>
<linearGradient id="paint2_linear" x1="124.6" y1="48.6004" x2="69.3997" y2="99.2004" gradientUnits="userSpaceOnUse">
<stop stop-color="#00C4CC" stop-opacity="0.25"/>
<stop offset="0.983284" stop-color="#0047FF" stop-opacity="0.72"/>
</linearGradient>
</defs>
</svg>
